Coordinates
version=1
nRows=19
nColumns=63
inDegrees=yes

Units are S.I. units (second, meters, Newtons, ...)
If the header above contains a line with 'inDegrees', this indicates whether rotational values are in degrees (yes) or radians (no).

endheader
time	pelvis_tilt	pelvis_list	pelvis_rotation	pelvis_tx	pelvis_ty	pelvis_tz	hip_flexion_r	hip_adduction_r	hip_rotation_r	knee_angle_r	knee_angle_r_beta	ankle_angle_r	subtalar_angle_r	mtp_angle_r	hip_flexion_l	hip_adduction_l	hip_rotation_l	knee_angle_l	knee_angle_l_beta	ankle_angle_l	subtalar_angle_l	mtp_angle_l	L5_S1_Flex_Ext	L5_S1_Lat_Bending	L5_S1_axial_rotation	L4_L5_Flex_Ext	L4_L5_Lat_Bending	L4_L5_axial_rotation	L3_L4_Flex_Ext	L3_L4_Lat_Bending	L3_L4_axial_rotation	L2_L3_Flex_Ext	L2_L3_Lat_Bending	L2_L3_axial_rotation	L1_L2_Flex_Ext	L1_L2_Lat_Bending	L1_L2_axial_rotation	L1_T12_Flex_Ext	L1_T12_Lat_Bending	L1_T12_axial_rotation	Abs_r3	Abs_r2	Abs_r1	Abs_t1	Abs_t2	neck_flexion	neck_bending	neck_rotation	arm_flex_r	arm_add_r	arm_rot_r	elbow_flex_r	pro_sup_r	wrist_flex_r	wrist_dev_r	arm_flex_l	arm_add_l	arm_rot_l	elbow_flex_l	pro_sup_l	wrist_flex_l	wrist_dev_l
3.116667	-0.151316	-2.465037	59.137706	0.353411	0.973304	0.446819	5.321272	6.395301	13.452915	10.253681	0.178960	15.248643	-11.382498	0.000000	3.376033	-4.840562	-17.078817	13.491503	0.235471	28.229472	-15.775740	0.000000	-0.175628	0.152643	-3.797542	-0.326159	0.203015	-4.034888	-0.288539	0.371135	-4.034888	-0.200725	0.371135	-3.322849	-0.163088	0.311269	-3.085502	-0.100354	0.236443	-2.848156	-1.254494	1.726723	-21.120787	0.000000	0.000000	14.548233	10.875866	2.002818	29.649483	-9.917104	14.127590	116.438363	88.380825	-14.737406	7.221353	27.913461	-8.832888	17.082368	108.878664	85.108502	4.808328	-6.423015
3.133333	-0.077208	-2.331490	59.274365	0.354544	0.973550	0.445687	4.760870	6.343430	13.571927	9.643858	0.168317	15.062144	-11.445351	0.000000	3.153806	-4.885548	-17.041662	13.515552	0.235891	28.266926	-15.696498	0.000000	-0.177917	0.155918	-3.766063	-0.330410	0.207371	-4.001441	-0.292300	0.379100	-4.001441	-0.203341	0.379100	-3.295305	-0.165214	0.317949	-3.059926	-0.101662	0.241517	-2.824547	-1.270843	1.763779	-20.945710	0.000000	0.000000	14.194497	10.970575	2.395386	28.509759	-10.232458	14.457143	116.832208	88.562237	-14.175899	7.447531	27.391226	-9.400043	18.029124	109.616931	88.292979	1.840796	-6.060905
3.150000	-0.010346	-2.206418	59.460516	0.355693	0.973819	0.444350	4.177806	6.291001	13.834999	8.980429	0.156738	14.873338	-11.623914	0.000000	2.937304	-4.928614	-17.027691	13.534397	0.236220	28.298466	-15.540690	0.000000	-0.179928	0.158270	-3.716653	-0.334144	0.210500	-3.948943	-0.295603	0.384819	-3.948943	-0.205639	0.384819	-3.252071	-0.167081	0.322745	-3.019780	-0.102811	0.245161	-2.787490	-1.285205	1.790386	-20.670907	0.000000	0.000000	13.889540	11.139875	2.688010	27.094224	-10.576126	14.370473	117.390780	88.654184	-13.718875	7.783390	26.897170	-9.921175	18.842075	110.484206	90.389700	-1.517470	-4.860481
3.166667	0.040561	-2.100521	59.696011	0.356855	0.974112	0.442846	3.595335	6.235197	14.199727	8.280147	0.144516	14.684130	-11.881625	0.000000	2.738494	-4.966338	-17.036682	13.536178	0.236251	28.317921	-15.315903	0.000000	-0.181294	0.158898	-3.639224	-0.336681	0.211334	-3.866675	-0.297848	0.386345	-3.866675	-0.207201	0.386345	-3.184321	-0.168350	0.324025	-2.956869	-0.103591	0.246133	-2.729418	-1.294966	1.797486	-20.240271	0.000000	0.000000	13.617506	11.407382	2.820014	25.371906	-10.989214	13.752232	118.244114	88.627171	-13.371866	8.244067	26.422244	-10.319445	19.552916	111.484080	91.012325	-4.867370	-2.927201
3.183333	0.069897	-2.023871	59.997018	0.357988	0.974427	0.441207	3.034520	6.175980	14.640846	7.557865	0.131910	14.479820	-12.229548	0.000000	2.570417	-4.994365	-17.035880	13.509571	0.235786	28.323025	-15.044605	0.000000	-0.181425	0.158084	-3.532581	-0.336925	0.210251	-3.753367	-0.298063	0.384365	-3.753367	-0.207351	0.384365	-3.091008	-0.168471	0.322364	-2.870222	-0.103666	0.244872	-2.649436	-1.295902	1.788275	-19.647154	0.000000	0.000000	13.342287	11.765830	2.771713	23.392472	-11.509930	12.573715	119.514585	88.497677	-13.090537	8.931807	25.957756	-10.540391	20.176006	112.618742	90.500505	-7.900224	-0.564332
3.200000	0.075243	-1.969967	60.355864	0.359070	0.974765	0.439504	2.504213	6.109944	15.131479	6.835486	0.119302	14.256699	-12.641352	0.000000	2.429102	-5.009630	-17.041728	13.451283	0.234769	28.316757	-14.708065	0.000000	-0.181629	0.155714	-3.397279	-0.337303	0.207099	-3.609609	-0.298398	0.378603	-3.609609	-0.207584	0.378603	-2.972619	-0.168661	0.317532	-2.760289	-0.103783	0.241201	-2.547959	-1.297357	1.761466	-18.894646	0.000000	0.000000	13.020165	12.174879	2.535115	21.288091	-12.146373	10.880886	121.276798	88.312810	-12.696489	9.926010	25.514747	-10.593158	20.774308	113.913149	88.963603	-10.461527	2.008096
3.216667	0.063337	-1.923089	60.788910	0.359995	0.975120	0.437824	2.010571	6.032483	15.573762	6.146153	0.107271	14.042391	-13.036292	0.000000	2.314027	-5.007175	-17.006752	13.377212	0.233476	28.301308	-14.347928	0.000000	-0.184707	0.153310	-3.245687	-0.343020	0.203902	-3.448543	-0.303456	0.372758	-3.448543	-0.211102	0.372758	-2.839976	-0.171519	0.312630	-2.637121	-0.105542	0.237477	-2.434266	-1.319347	1.734273	-18.051540	0.000000	0.000000	12.639527	12.579280	2.191867	19.261236	-12.867368	8.796396	123.516689	88.207386	-12.017636	11.209433	25.117252	-10.495692	21.289375	115.334094	87.125708	-12.065939	4.353195
3.233333	0.039409	-1.877371	61.268214	0.360764	0.975477	0.436262	1.558342	5.947865	15.997195	5.508966	0.096150	13.829227	-13.446243	0.000000	2.218653	-4.990359	-16.925803	13.291302	0.231977	28.274951	-13.996817	0.000000	-0.191736	0.152366	-3.095423	-0.356072	0.202646	-3.288887	-0.315003	0.370462	-3.288887	-0.219135	0.370462	-2.708495	-0.178046	0.310704	-2.515031	-0.109558	0.236015	-2.321567	-1.369549	1.723592	-17.215813	0.000000	0.000000	12.176224	12.932099	1.848312	17.540615	-13.565952	6.528214	126.105100	88.136280	-10.951315	12.540219	24.739084	-10.333943	21.547906	116.986921	86.099326	-12.738817	6.297783
3.250000	0.007180	-1.830380	61.835503	0.361303	0.975826	0.434838	1.150548	5.857117	16.324609	4.930839	0.086059	13.619158	-13.863645	0.000000	2.155851	-4.958892	-16.740898	13.208011	0.230523	28.244964	-13.661526	0.000000	-0.201308	0.153713	-2.967760	-0.373849	0.204438	-3.153245	-0.330729	0.373737	-3.153245	-0.230075	0.373737	-2.596790	-0.186935	0.313451	-2.411305	-0.115027	0.238101	-2.225820	-1.437923	1.738827	-16.505792	0.000000	0.000000	11.621080	13.218522	1.562329	16.235442	-14.206381	4.287599	128.904507	88.105238	-9.716141	13.538068	24.393839	-10.133942	21.446529	118.885168	85.794719	-12.263321	7.604121
3.266667	-0.032199	-1.779547	62.471657	0.361612	0.976165	0.433579	0.793473	5.760707	16.544203	4.427457	0.077274	13.421294	-14.270951	0.000000	2.121303	-4.910317	-16.444732	13.126683	0.229104	28.212220	-13.368022	0.000000	-0.212859	0.157432	-2.873406	-0.395300	0.209385	-3.052994	-0.349706	0.382781	-3.052994	-0.243277	0.382781	-2.514231	-0.197661	0.321036	-2.334643	-0.121628	0.243862	-2.155055	-1.520431	1.780905	-15.981024	0.000000	0.000000	10.991262	13.388267	1.343771	15.407526	-14.763709	2.226208	131.798637	88.095426	-8.517247	13.985014	24.069271	-9.925171	20.936629	121.029277	86.019242	-10.687413	8.127541
3.283333	-0.083843	-1.733462	63.148551	0.361716	0.976476	0.432524	0.504813	5.660225	16.660029	4.012158	0.070025	13.247119	-14.654782	0.000000	2.124693	-4.846586	-16.056022	13.052080	0.227802	28.190419	-13.114986	0.000000	-0.224661	0.162483	-2.816631	-0.417217	0.216102	-2.992671	-0.369095	0.395060	-2.992671	-0.256765	0.395060	-2.464552	-0.208620	0.331334	-2.288513	-0.128371	0.251685	-2.112474	-1.604729	1.838035	-15.665259	0.000000	0.000000	10.323294	13.427206	1.156582	15.054978	-15.242348	0.392617	134.706018	88.094652	-7.448579	13.802065	23.761179	-9.720286	20.013855	123.390215	86.376480	-7.919088	7.984084
3.300000	-0.153112	-1.695995	63.849688	0.361648	0.976759	0.431671	0.288280	5.550635	16.649694	3.682020	0.064263	13.107568	-14.980591	0.000000	2.169520	-4.766359	-15.599103	12.985132	0.226633	28.185618	-12.882290	0.000000	-0.234775	0.168114	-2.802891	-0.436001	0.223592	-2.978072	-0.385712	0.408752	-2.978072	-0.268324	0.408752	-2.452530	-0.218012	0.342818	-2.277349	-0.134150	0.260409	-2.102168	-1.676974	1.901739	-15.588839	0.000000	0.000000	9.645094	13.341332	1.054894	15.138238	-15.629725	-1.215379	137.559508	88.101286	-6.449913	13.080057	23.422675	-9.540119	18.729336	125.922995	86.357075	-4.062524	7.295040
3.316667	-0.242815	-1.666677	64.564868	0.361417	0.977023	0.431009	0.142975	5.424202	16.485352	3.437905	0.060003	13.009540	-15.198802	0.000000	2.250349	-4.661777	-15.063450	12.913003	0.225374	28.190803	-12.690665	0.000000	-0.243537	0.172434	-2.827447	-0.452272	0.229337	-3.004162	-0.400107	0.419256	-3.004162	-0.278338	0.419256	-2.474016	-0.226148	0.351627	-2.297301	-0.139157	0.267100	-2.120585	-1.739559	1.950606	-15.725412	0.000000	0.000000	9.040263	13.213560	0.984333	15.594018	-15.971258	-2.611742	140.322752	88.122262	-5.553415	11.973870	23.064629	-9.393230	17.210510	128.554346	85.907580	0.482660	6.061408
3.333333	-0.346456	-1.649900	65.278077	0.361040	0.977278	0.430526	0.069588	5.290795	16.194006	3.285828	0.057349	12.948781	-15.328880	0.000000	2.366321	-4.544326	-14.472785	12.841246	0.224122	28.219724	-12.536104	0.000000	-0.250870	0.176331	-2.883185	-0.465891	0.234520	-3.063384	-0.412155	0.428731	-3.063384	-0.286720	0.428731	-2.522787	-0.232958	0.359574	-2.342588	-0.143347	0.273136	-2.162389	-1.791941	1.994690	-16.035412	0.000000	0.000000	8.560020	13.073630	0.971432	16.383408	-16.321604	-3.756877	142.932450	88.165927	-4.772760	10.708413	22.703388	-9.282416	15.557169	131.162160	84.959597	5.365347	4.328078
3.350000	-0.455143	-1.635905	65.975683	0.360536	0.977542	0.430232	0.042282	5.153846	15.798433	3.202442	0.055893	12.910724	-15.360573	0.000000	2.497126	-4.420401	-13.859880	12.762038	0.222740	28.282966	-12.393212	0.000000	-0.258506	0.180361	-2.967906	-0.480072	0.239880	-3.153400	-0.424700	0.438530	-3.153400	-0.295447	0.438530	-2.596917	-0.240049	0.367792	-2.411423	-0.147710	0.279379	-2.225929	-1.846483	2.040280	-16.506601	0.000000	0.000000	8.236731	12.948534	1.079647	17.494783	-16.654144	-4.585157	145.270675	88.233877	-4.059483	9.491223	22.351252	-9.208364	13.840610	133.688893	83.304320	10.088427	2.561065
3.366667	-0.571687	-1.634627	66.657304	0.359928	0.977806	0.430097	0.062243	5.017273	15.358378	3.173665	0.055391	12.870754	-15.364945	0.000000	2.647330	-4.291546	-13.244733	12.668936	0.221115	28.373542	-12.241050	0.000000	-0.262943	0.185706	-3.081764	-0.488311	0.246989	-3.274374	-0.431989	0.451525	-3.274374	-0.300518	0.451525	-2.696543	-0.244169	0.378691	-2.503933	-0.150246	0.287658	-2.311323	-1.878175	2.100739	-17.139846	0.000000	0.000000	8.071695	12.854535	1.392937	18.896948	-16.958332	-4.988924	147.196867	88.326873	-3.419398	8.345709	22.016312	-9.193499	12.129336	136.064958	81.649492	14.132219	0.707110
3.383333	-0.680944	-1.629966	67.317319	0.359236	0.978081	0.430131	0.103131	4.888560	14.878857	3.186602	0.055617	12.833190	-15.325683	0.000000	2.794055	-4.167814	-12.637423	12.564554	0.219293	28.486948	-12.077474	0.000000	-0.267632	0.193494	-3.219866	-0.497020	0.257347	-3.421107	-0.439693	0.470461	-3.421107	-0.305877	0.470461	-2.817383	-0.248523	0.394573	-2.616141	-0.152925	0.299722	-2.414899	-1.911671	2.188843	-17.907927	0.000000	0.000000	8.103405	12.778468	1.903563	20.543873	-17.222440	-4.913337	148.607339	88.435842	-2.833486	7.315842	21.738129	-9.241971	10.451947	138.259181	80.246795	17.461865	-0.827535
3.400000	-0.778005	-1.625917	67.947866	0.358508	0.978354	0.430315	0.156062	4.775180	14.396555	3.220734	0.056212	12.788454	-15.269786	0.000000	2.932749	-4.059774	-12.087448	12.444815	0.217203	28.625677	-11.856936	0.000000	-0.270748	0.204685	-3.375664	-0.502805	0.272231	-3.586643	-0.444811	0.497671	-3.586643	-0.309437	0.497671	-2.953706	-0.251416	0.417394	-2.742727	-0.154705	0.317057	-2.531748	-1.933923	2.315437	-18.774428	0.000000	0.000000	8.297933	12.706668	2.600309	22.364332	-17.449162	-4.304026	149.420159	88.543668	-2.354904	6.348246	21.559191	-9.357213	8.866384	140.220590	79.226746	20.018776	-1.835502
3.416667	-0.870312	-1.621347	68.543996	0.357776	0.978614	0.430600	0.218232	4.669297	13.933932	3.268985	0.057055	12.741503	-15.213491	0.000000	3.061753	-3.956891	-11.578311	12.311026	0.214868	28.773593	-11.617202	0.000000	-0.271081	0.217901	-3.536054	-0.503425	0.289809	-3.757057	-0.445359	0.529805	-3.757057	-0.309819	0.529805	-3.094047	-0.251726	0.444345	-2.873044	-0.154896	0.337529	-2.652041	-1.936306	2.464944	-19.666472	0.000000	0.000000	8.654496	12.607516	3.344475	24.244920	-17.650125	-3.213500	149.641256	88.625989	-1.999955	5.415221	21.523700	-9.511252	7.436032	141.891896	78.820612	21.770814	-2.289469
